<svg width="1500" height="500" viewBox="0 0 1500 500" fill="none" xmlns="http://www.w3.org/2000/svg">
<g clip-path="url(#clip0)">
<rect width="1500" height="500" fill="url(#paint0_linear)"/>
<g opacity="0.8">
<path opacity="0.3" d="M894.663 244.8C894.663 324.805 829.805 389.663 749.8 389.663C669.794 389.663 604.937 324.805 604.937 244.8C604.937 164.794 669.794 99.9366 749.8 99.9366C829.805 99.9366 894.663 164.794 894.663 244.8Z" stroke="#495BB8" stroke-width="2"/>
<circle opacity="0.25" cx="750" cy="245" r="240.327" stroke="#495BB8" stroke-width="2"/>
<circle opacity="0.2" cx="750" cy="245" r="324.266" stroke="#495BB8" stroke-width="2"/>
<circle opacity="0.15" cx="750" cy="245" r="412.869" stroke="#495BB8" stroke-width="2"/>
<circle opacity="0.1" cx="750" cy="245" r="502.638" stroke="#495BB8" stroke-width="2"/>
<circle opacity="0.05" cx="750" cy="245" r="602.899" stroke="#495BB8" stroke-width="2"/>
<circle opacity="0.05" cx="750" cy="245" r="695" stroke="#495BB8" stroke-width="2"/>
</g>
<g filter="url(#filter0_di)">
<rect x="670" y="160" width="160" height="160" rx="40" fill="white"/>
</g>
<g filter="url(#filter1_i)">
<path d="M750 278.737C750 281.206 751.997 283.231 754.441 282.979C776.102 280.745 793 262.356 793 240C793 217.644 776.102 199.255 754.441 197.021C751.997 196.768 750 198.794 750 201.263V213.182C750 215.651 752.011 217.606 754.42 218.093C764.586 220.153 772.241 229.178 772.241 240C772.241 250.823 764.586 259.847 754.42 261.907C752.011 262.395 750 264.351 750 266.818V278.737ZM736.655 205.074C736.655 202.035 733.694 199.892 730.982 201.238C716.773 208.289 707 222.998 707 240C707 257.003 716.773 271.711 730.982 278.762C733.694 280.108 736.655 277.965 736.655 274.926V205.076V205.074Z" fill="#3F75FF"/>
</g>
<path d="M643.072 369V343.406H650.947C653.197 343.406 655.207 343.916 656.977 344.936C658.758 345.943 660.146 347.385 661.143 349.26C662.139 351.123 662.637 353.244 662.637 355.623V356.801C662.637 359.18 662.145 361.295 661.16 363.146C660.188 364.998 658.811 366.434 657.029 367.453C655.248 368.473 653.238 368.988 651 369H643.072ZM648.346 347.678V364.764H650.895C652.957 364.764 654.533 364.09 655.623 362.742C656.713 361.395 657.27 359.467 657.293 356.959V355.605C657.293 353.004 656.754 351.035 655.676 349.699C654.598 348.352 653.021 347.678 650.947 347.678H648.346ZM679.758 362.285C679.758 361.289 679.406 360.527 678.703 360C678 359.461 676.734 358.898 674.906 358.312C673.078 357.715 671.631 357.129 670.564 356.555C667.658 354.984 666.205 352.869 666.205 350.209C666.205 348.826 666.592 347.596 667.365 346.518C668.15 345.428 669.27 344.578 670.723 343.969C672.188 343.359 673.828 343.055 675.645 343.055C677.473 343.055 679.102 343.389 680.531 344.057C681.961 344.713 683.068 345.645 683.854 346.852C684.65 348.059 685.049 349.43 685.049 350.965H679.775C679.775 349.793 679.406 348.885 678.668 348.24C677.93 347.584 676.893 347.256 675.557 347.256C674.268 347.256 673.266 347.531 672.551 348.082C671.836 348.621 671.479 349.336 671.479 350.227C671.479 351.059 671.895 351.756 672.727 352.318C673.57 352.881 674.807 353.408 676.436 353.9C679.436 354.803 681.621 355.922 682.992 357.258C684.363 358.594 685.049 360.258 685.049 362.25C685.049 364.465 684.211 366.205 682.535 367.471C680.859 368.725 678.604 369.352 675.768 369.352C673.799 369.352 672.006 368.994 670.389 368.279C668.771 367.553 667.535 366.562 666.68 365.309C665.836 364.055 665.414 362.602 665.414 360.949H670.705C670.705 363.773 672.393 365.186 675.768 365.186C677.021 365.186 678 364.934 678.703 364.43C679.406 363.914 679.758 363.199 679.758 362.285ZM703.084 363.727H693.838L692.08 369H686.473L696 343.406H700.887L710.467 369H704.859L703.084 363.727ZM695.262 359.455H701.66L698.443 349.875L695.262 359.455Z" fill="#3F75FF"/>
<path d="M722.402 360.088H712.506V355.992H722.402V360.088ZM746.906 360.475C746.707 363.229 745.688 365.396 743.848 366.979C742.02 368.561 739.605 369.352 736.605 369.352C733.324 369.352 730.74 368.25 728.854 366.047C726.979 363.832 726.041 360.797 726.041 356.941V355.377C726.041 352.916 726.475 350.748 727.342 348.873C728.209 346.998 729.445 345.562 731.051 344.566C732.668 343.559 734.543 343.055 736.676 343.055C739.629 343.055 742.008 343.846 743.812 345.428C745.617 347.01 746.66 349.23 746.941 352.09H741.668C741.539 350.438 741.076 349.242 740.279 348.504C739.494 347.754 738.293 347.379 736.676 347.379C734.918 347.379 733.6 348.012 732.721 349.277C731.854 350.531 731.408 352.482 731.385 355.131V357.064C731.385 359.83 731.801 361.852 732.633 363.129C733.477 364.406 734.801 365.045 736.605 365.045C738.234 365.045 739.447 364.676 740.244 363.938C741.053 363.188 741.516 362.033 741.633 360.475H746.906ZM749.244 359.314C749.244 357.428 749.607 355.746 750.334 354.27C751.061 352.793 752.104 351.65 753.463 350.842C754.834 350.033 756.422 349.629 758.227 349.629C760.793 349.629 762.885 350.414 764.502 351.984C766.131 353.555 767.039 355.688 767.227 358.383L767.262 359.684C767.262 362.602 766.447 364.945 764.818 366.715C763.189 368.473 761.004 369.352 758.262 369.352C755.52 369.352 753.328 368.473 751.688 366.715C750.059 364.957 749.244 362.566 749.244 359.543V359.314ZM754.324 359.684C754.324 361.488 754.664 362.871 755.344 363.832C756.023 364.781 756.996 365.256 758.262 365.256C759.492 365.256 760.453 364.787 761.145 363.85C761.836 362.9 762.182 361.389 762.182 359.314C762.182 357.545 761.836 356.174 761.145 355.201C760.453 354.229 759.48 353.742 758.227 353.742C756.984 353.742 756.023 354.229 755.344 355.201C754.664 356.162 754.324 357.656 754.324 359.684ZM775.066 349.98L775.225 352.178C776.584 350.479 778.406 349.629 780.691 349.629C782.707 349.629 784.207 350.221 785.191 351.404C786.176 352.588 786.68 354.357 786.703 356.713V369H781.623V356.836C781.623 355.758 781.389 354.979 780.92 354.498C780.451 354.006 779.672 353.76 778.582 353.76C777.152 353.76 776.08 354.369 775.365 355.588V369H770.285V349.98H775.066ZM795.246 349.98L795.404 352.178C796.764 350.479 798.586 349.629 800.871 349.629C802.887 349.629 804.387 350.221 805.371 351.404C806.355 352.588 806.859 354.357 806.883 356.713V369H801.803V356.836C801.803 355.758 801.568 354.979 801.1 354.498C800.631 354.006 799.852 353.76 798.762 353.76C797.332 353.76 796.26 354.369 795.545 355.588V369H790.465V349.98H795.246ZM819.504 369.352C816.715 369.352 814.441 368.496 812.684 366.785C810.938 365.074 810.064 362.795 810.064 359.947V359.455C810.064 357.545 810.434 355.84 811.172 354.34C811.91 352.828 812.953 351.668 814.301 350.859C815.66 350.039 817.207 349.629 818.941 349.629C821.543 349.629 823.588 350.449 825.076 352.09C826.576 353.73 827.326 356.057 827.326 359.068V361.143H815.215C815.379 362.385 815.871 363.381 816.691 364.131C817.523 364.881 818.572 365.256 819.838 365.256C821.795 365.256 823.324 364.547 824.426 363.129L826.922 365.924C826.16 367.002 825.129 367.846 823.828 368.455C822.527 369.053 821.086 369.352 819.504 369.352ZM818.924 353.742C817.916 353.742 817.096 354.082 816.463 354.762C815.842 355.441 815.443 356.414 815.268 357.68H822.334V357.275C822.311 356.15 822.006 355.283 821.42 354.674C820.834 354.053 820.002 353.742 818.924 353.742ZM838.137 365.256C839.074 365.256 839.836 364.998 840.422 364.482C841.008 363.967 841.312 363.281 841.336 362.426H846.1C846.088 363.715 845.736 364.898 845.045 365.977C844.354 367.043 843.404 367.875 842.197 368.473C841.002 369.059 839.678 369.352 838.225 369.352C835.506 369.352 833.361 368.49 831.791 366.768C830.221 365.033 829.436 362.643 829.436 359.596V359.262C829.436 356.332 830.215 353.994 831.773 352.248C833.332 350.502 835.471 349.629 838.189 349.629C840.568 349.629 842.473 350.309 843.902 351.668C845.344 353.016 846.076 354.814 846.1 357.064H841.336C841.312 356.08 841.008 355.283 840.422 354.674C839.836 354.053 839.062 353.742 838.102 353.742C836.918 353.742 836.021 354.176 835.412 355.043C834.814 355.898 834.516 357.293 834.516 359.227V359.754C834.516 361.711 834.814 363.117 835.412 363.973C836.01 364.828 836.918 365.256 838.137 365.256ZM855.082 345.305V349.98H858.334V353.707H855.082V363.199C855.082 363.902 855.217 364.406 855.486 364.711C855.756 365.016 856.271 365.168 857.033 365.168C857.596 365.168 858.094 365.127 858.527 365.045V368.895C857.531 369.199 856.506 369.352 855.451 369.352C851.889 369.352 850.072 367.553 850.002 363.955V353.707H847.225V349.98H850.002V345.305H855.082Z" fill="white"/>
</g>
<defs>
<filter id="filter0_di" x="654" y="152" width="192" height="192" filterUnits="userSpaceOnUse" color-interpolation-filters="sRGB">
<feFlood flood-opacity="0" result="BackgroundImageFix"/>
<feColorMatrix in="SourceAlpha" type="matrix" values="0 0 0 0 0 0 0 0 0 0 0 0 0 0 0 0 0 0 127 0"/>
<feOffset dy="8"/>
<feGaussianBlur stdDeviation="8"/>
<feColorMatrix type="matrix" values="0 0 0 0 0 0 0 0 0 0 0 0 0 0 0 0 0 0 0.25 0"/>
<feBlend mode="normal" in2="BackgroundImageFix" result="effect1_dropShadow"/>
<feBlend mode="normal" in="SourceGraphic" in2="effect1_dropShadow" result="shape"/>
<feColorMatrix in="SourceAlpha" type="matrix" values="0 0 0 0 0 0 0 0 0 0 0 0 0 0 0 0 0 0 127 0" result="hardAlpha"/>
<feOffset dy="-6"/>
<feGaussianBlur stdDeviation="8"/>
<feComposite in2="hardAlpha" operator="arithmetic" k2="-1" k3="1"/>
<feColorMatrix type="matrix" values="0 0 0 0 0.714427 0 0 0 0 0.765221 0 0 0 0 0.895833 0 0 0 0.25 0"/>
<feBlend mode="normal" in2="shape" result="effect2_innerShadow"/>
</filter>
<filter id="filter1_i" x="707" y="197" width="87" height="90" filterUnits="userSpaceOnUse" color-interpolation-filters="sRGB">
<feFlood flood-opacity="0" result="BackgroundImageFix"/>
<feBlend mode="normal" in="SourceGraphic" in2="BackgroundImageFix" result="shape"/>
<feColorMatrix in="SourceAlpha" type="matrix" values="0 0 0 0 0 0 0 0 0 0 0 0 0 0 0 0 0 0 127 0" result="hardAlpha"/>
<feOffset dx="1" dy="4"/>
<feGaussianBlur stdDeviation="4"/>
<feComposite in2="hardAlpha" operator="arithmetic" k2="-1" k3="1"/>
<feColorMatrix type="matrix" values="0 0 0 0 0 0 0 0 0 0 0 0 0 0 0 0 0 0 0.2 0"/>
<feBlend mode="normal" in2="shape" result="effect1_innerShadow"/>
</filter>
<linearGradient id="paint0_linear" x1="541" y1="-179" x2="831" y2="500" gradientUnits="userSpaceOnUse">
<stop offset="0.0295604" stop-color="#2B3764"/>
<stop offset="1" stop-color="#192343"/>
</linearGradient>
<clipPath id="clip0">
<rect width="1500" height="500" fill="white"/>
</clipPath>
</defs>
</svg>
